<?xml version="1.0" standalone="no"?><!DOCTYPE svg PUBLIC "-//W3C//DTD SVG 1.1//EN" "http://www.w3.org/Graphics/SVG/1.1/DTD/svg11.dtd"><svg t="1686487961507" class="icon" viewBox="0 0 1036 1024" version="1.1" xmlns="http://www.w3.org/2000/svg" p-id="5535" xmlns:xlink="http://www.w3.org/1999/xlink" width="129.5" height="128"><path d="M1035.969043 333.193863l-121.716545 108.767977 19.422853 12.948568c6.474284 6.474284 12.948569 6.474284 12.948569 12.948569a55.031417 55.031417 0 0 1 6.474284 31.723993c-6.474284 70.569699-159.914823 288.105652-377.450776 300.406793V441.96184l255.734231-25.249709v-64.742843L575.647428 324.129865v-29.134279a156.030252 156.030252 0 0 0 89.345124-146.966254A152.79311 152.79311 0 0 0 518.026298 0.415649a148.908539 148.908539 0 0 0-159.914823 154.087967 140.49197 140.49197 0 0 0 89.345124 134.017685V324.129865l-229.837094 31.723993v64.742843l242.785662 25.249709v358.675352c-217.535953-12.948569-370.976492-230.484522-377.450776-301.054221a56.973702 56.973702 0 0 1 6.474285-31.723993 14.243426 14.243426 0 0 1 12.948568-12.948569l19.422853-12.948569L0.083552 333.841292c-6.474284 472.622755 364.502207 582.685589 460.321615 613.762153L518.026298 1024l57.62113-76.396555c95.819408-32.371422 466.795899-141.139398 460.321615-614.409582z" p-id="5536"></path></svg>