<svg t="1686489133072" class="icon" viewBox="0 0 1024 1024" version="1.1" xmlns="http://www.w3.org/2000/svg" p-id="4405" width="128" height="128"><path d="M400.5 230.9c-139.9 27.7-270.9 94.8-387.9 155.6C80.9 535.2 190 679.6 217.9 832.7c59.8 26.3 135.5 39.6 197.5 41.7 7.6-188 0.6-404.2-14.9-643.5zM165.5 0v55.9H208v182.7c76.6-31.3 144.1-49.1 224.3-64.8 81.6 15.2 147.6 33.4 225.1 65.9V55.9h39.5V0H165.5c-0.1 0 0 0 0 0z m182.9 134.8H233.7V78.9h114.6l0.1 55.9c-0.1 0 0 0 0 0z m140.1 0H373.9V78.9h114.6v55.9z m139.3 0H513.2V78.9h114.6v55.9zM112.4 937.3c59.6 33.9 124 33.2 193.1 0 80.6 45.8 167.6 44.9 260.9 0.1v-0.1c69 33.2 133.4 33.9 193.1 0l1.7 8.3c-32.1 73.6-161.5 73.8-194.8 3.7v4.2c-44.6 94-216.6 94.6-262.1-2-34.9 67.6-160.8 66.9-193.3-4.9C90.1 984.1 19.2 983 1.4 942c0.3-1.6 0.6-3.2 1-4.8 34 19.3 70.7 19 110 0.1z m650 0l-1.1 4.7c18.2 41.4 90.4 42.1 110.4 3.4l0.7 1.3v-9.3c-39.4 18.8-76 19.2-110-0.1zM586.8 460.6c-5.7 0.1-10.2 4.7-10.2 10.4s4.5 10.4 10.2 10.4c5.7-0.1 10.2-4.7 10.1-10.4 0.1-5.7-4.4-10.3-10.1-10.4zM460.1 229.8c-15.2 216.5-24.3 431.8-19.9 643.9 61.9-3.7 144.4-17.9 207.8-41 28-153.1 136.9-297.6 205.4-446.3-123.5-59.6-255.3-131.1-393.3-156.6z m212.4 361.9c-2.3 0.5-4.2-0.8-5.5-2.6-6.3 15.2-17.4 28-31.7 36.6-14 8.9-29.6 13.9-44.5 20.9l-3.2 1.4-3.3-1.4c-14.9-6.9-30.3-11.9-44.4-20.9-14.2-8.5-25.3-21.4-31.7-36.6-1.3 1.7-3.2 3-5.6 2.6-3.8-0.7-4.8-5.8-5.2-9-0.5-4.3-0.8-8.6-0.8-13-0.1-6 0.2-11.9 0.1-17.8l6-2.8c1.7 1.5 3.6 3 5.3 4.4l8.1 6.4c3.3 2.8 6.8 5.7 9.7 8.8 2.3 2.5 5.5 6.3 3.8 10-1.4 2.7-4.4 3.2-7.5 2.8 10.3 17.8 34.4 27.9 53.9 32.1v-90.2h-21.4c-2.4 2.5-5.8 3.9-9.3 4-7.4 0-13.4-6.1-13.3-13.5 0-7.4 6-13.5 13.3-13.5 4.4 0 8.5 2.2 11 5.8h19.6v-10.8c-9.6-4.3-15.7-13.9-15.6-24.4 0-8.9 4.3-16.7 10.8-21.5-16.1-7.3-26.1-25.8-22.9-46 3.6-24.2 24.5-41.4 46.7-38.6 22.3 2.8 37.2 24.8 33.6 48.9-2.1 15.6-12.1 29-26.3 35.5 11.9 8.7 14.5 25.3 5.9 37.2-0.2 0.2-0.3 0.4-0.5 0.7-2.6 3.3-5.8 6-9.6 7.8v11.1h19.8c4.2-6.1 12.5-7.6 18.6-3.4 3.6 2.5 5.8 6.6 5.8 11 0.1 7.4-5.8 13.5-13.3 13.6h-0.1c-3.5 0-6.9-1.5-9.3-4H598v90.4c19.7-4.1 44.5-14.2 55-32.3-3.1 0.3-6.1-0.2-7.5-2.8-1.7-3.6 1.6-7.4 3.9-9.9 2.9-3.1 6.2-6 9.5-8.7l8-6.5 5.4-4.3 5.9 2.7c-0.1 6 0.2 11.9 0.2 17.8-0.2 4.3-0.3 8.7-0.8 13-0.3 3.2-1.1 8.2-5.1 9z m350.1 131.1v205.9H799.1V819.1h-105v-96.3h328.5z" fill="#707070" p-id="4406"></path></svg>